<svg version="1.1" xmlns="http://www.w3.org/2000/svg" xmlns:xlink="http://www.w3.org/1999/xlink" viewBox="0 374.825 583.939 239">
    <style type="text/css">
        a:hover path { fill: green; }
        a:hover path { transition: .5s fill; }
    </style>
    <a xlink:href="provinsi_dummy.php?provinsi=Papua Barat Daya" xlink:title="Papua Barat Daya" target="_parent">
        <g id="Papua Barat Daya">
            <path fill="#98B533" d="M448.036,495.016h-0.1l-0.149-0.05h-0.148l-0.3-0.1h-0.25l0.051,0.1h0.05v0.05l0.05,0.051l0.199,0.05
		l0.1-0.05l0.051,0.05l-0.101,0.05l-0.1,0.05l-0.05-0.05l-0.149-0.05h-0.101l-0.051,0.05h0.15h0.05l0.101,0.1l0.1,0.052h0.1
		l0.102,0.05h0.1h0.05h0.051l0.05-0.05l-0.05-0.052l-0.051-0.05v-0.05v0.1l0.101,0.15h0.05l0.05-0.15h0.102l0.05-0.05l0.05-0.05
		l-0.05-0.05L448.036,495.016z M439.951,490.124l-0.148,0.05l-0.102,0.102v0.148l0.25,0.149v-0.149v-0.148V490.124z
		 M436.308,482.139h-0.101h-0.05l-0.05-0.05l-0.05-0.05h-0.15l-0.198,0.05l-0.101,0.101l-0.05,0.1h-0.05l0.1,0.15h0.05v-0.051h0.051
		l-0.051-0.05l0,0l0.051,0.05h0.05l0.1-0.05l0.05-0.051h0.051l0.051-0.05h0.05l0.05,0.05v0.101v0.051l-0.05,0.05l0.1,0.05h0.149
		l0.1,0.05v-0.199l-0.05-0.05L436.308,482.139z M442.347,482.688h0.148l0.052-0.051l0.148-0.1l0.149-0.05l0.05,0.1l-0.1,0.101
		l-0.55,0.35l0.351-0.05l0.299-0.149l0.499-0.398v0.1l0.051,0.05l0.05,0.05v0.051l0.35-0.249l0.101-0.15l-0.101-0.199l-0.199-0.1
		h-0.25h-0.249l-0.2-0.149h-0.249l-1.147,0.398l-0.249,0.2l-0.051,0.198l0.249,0.15L442.347,482.688z M450.582,494.366
		L450.582,494.366l-0.05-0.05h-0.1h-0.051h-0.051l-0.05-0.051h-0.05l-0.1-0.05l-0.101-0.05v0.05l0.05,0.05l0.051,0.051h0.05
		l0.05,0.05h0.1l0.2,0.051l0.05,0.05h0.051h0.05L450.582,494.366L450.582,494.366z M449.585,492.42l0.148-0.05h0.149l0.101-0.05
		l-0.05-0.149l-1.148-0.449l0.149-0.199l0.398-0.3l0.15-0.05h0.1l0.101-0.051l0.05-0.249h0.05h0.101l0.101-0.1l0.05-0.2
		l-0.101-0.299l-0.149-0.25l-0.148-0.199l-0.699-0.499l0.05-0.601l-0.05-0.249l-0.149-0.1h-0.1l-0.15,0.1l-0.397,0.199l-0.25,0.2
		l-0.249,0.199l-0.2,0.2h-0.149l-0.749-0.15h-0.299l-0.5,0.15l-0.549,0.05l-0.249,0.05l-0.25,0.1l-0.698,0.399l-0.25,0.1
		l-0.448,0.051l-0.101,0.05l-0.199,0.1v0.051v0.051v0.05l-0.051,0.05l-1.597,0.549l-0.399,0.25l0.25,0.299l0.149,0.101l0.3,0.101
		l0.549,0.249l0.101,0.05l0.25,0.25l0.1,0.051l0.199,0.05l0.2,0.148l0.398,0.15l0.149,0.1l0.1,0.05h0.549l0.55,0.25l0.648-0.051
		l0.249,0.051l0.351,0.149h-0.051l-0.148,0.05l0.1,0.05l0.101,0.051l0.1,0.05l0.101,0.101l0.35-0.101h0.897l0.399-0.149l0.1-0.148
		l0.15-0.2l0.148-0.199l0.149-0.1l0.1-0.102l0.25-0.397l0.149-0.15l0.05,0.05v0.102l0.051,0.05l-0.051,0.05l-0.05,0.1v0.149
		l0.101,0.05l0.101,0.051l0.1,0.101l0.101,0.05l0.1-0.05l0.102-0.101l0.05-0.051l0.05-0.05h-0.056V492.42z M442.746,473.654
		l0.149,0.05l0.15-0.101l0.1-0.199l0.05-0.249l0.05-0.101l0.051-0.101l0.05-0.199l-0.101-0.199l-0.1-0.051h-0.149l-0.25,0.051
		l-0.198,0.101l-0.052,0.05l-0.05,0.1l-0.05,0.149v0.25l0.1,0.25L442.746,473.654z M450.033,495.315l-0.3-0.052h-0.1h-0.051h-0.05
		v0.052v0.05h0.05h0.149l0.149,0.05h0.149l0,0l0.05-0.05L450.033,495.315z M449.635,493.817v-0.051l-0.05-0.05l-0.051,0.05
		l0.051,0.149L449.635,493.817z M460.265,454.289l-0.102,0.15v0.05l0.102-0.15V454.289z M499.344,458.133l0.199-0.101l0.1-0.199
		l-0.05-0.149h-0.199l-0.2,0.101l-0.1,0.148l0.05,0.149L499.344,458.133z M499.493,493.668v0.35l0.101,0.3l0.25,0.25l0.199-0.051
		l0.149-0.25l0.101-0.499l0.349-0.599l0.051-0.1v-0.102l-0.051-0.148l-0.149-0.101l-0.148-0.1l-0.149-0.05l-0.149,0.05l-0.101,0.1
		l-0.1,0.101l-0.101,0.1l-0.149,0.3L499.493,493.668z M460.514,454.09l0.05-0.1v-0.15l-0.1-0.05l-0.101,0.1l-0.05,0.2v0.101
		L460.514,454.09z M447.339,486.182l0.05-0.05l0.148-0.1h0.102l0.148-0.15l-0.05-0.05h-0.149l-0.149,0.05l-0.149,0.05l-0.148,0.102
		l-0.051,0.148h0.2H447.339z M451.73,474.104l0.101,0.1h0.199l0.549-0.149l0.15-0.149l0.349-0.499l0.051-0.199v-0.199l-0.101-0.149
		l-0.1-0.051l-0.3-0.148l-0.149-0.101h-0.1l-0.101,0.051l-0.051,0.05l-0.05,0.05l-0.05,0.05l-0.3,0.101l-0.149,0.149l-0.149,0.149
		l-0.1,0.148l-0.2,0.101h-0.149l-0.1-0.149l-0.05-0.249l-0.05-0.051l-0.15,0.101l-0.148,0.199l-0.101,0.149l-0.05-0.101l-0.05-0.05
		h-0.051h-0.101l0.101,0.199l0.101,0.15l0.149,0.05l0.198-0.05l-0.05,0.148l-0.148,0.05l-0.149,0.05l-0.101,0.15l0.698-0.101
		l0.149-0.051l0.101-0.05l0.199-0.05l0.101-0.05l0.05-0.1l0.05-0.2l0.05-0.05l0.399-0.149v0.35l-0.199,0.399L451.73,474.104z
		 M447.838,470.211l0.35,0.05l0.1,0.05l0.051,0.101l0.05,0.1l0.05,0.05l0.05,0.051l0.3,0.05l0,0h0.351l0.05,0.051l0.05,0.1h0.101
		l0.148-0.149l0.102,0.051l0.1,0.05h0.249l0.051,0.05l0.05,0.101l0.05,0.05h0.051l0.1-0.1l0.05-0.051l0.399-0.199l0.25-0.051
		l0.199,0.102l0.05,0.1l-0.05,0.101l-0.051,0.1v0.1l0.101,0.15l0.2,0.199l0.1,0.1v0.3l-0.05,0.25v0.199l0.199,0.05l-0.149,0.399
		v0.149l0.05,0.05l0.101-0.05l0.1-0.101l0.2-0.549l0.05-0.3h-0.148h-0.102l0.2-0.399l0.398-0.199l0.998-0.25l0.051,0.15l0.05,0.199
		l-0.05,0.148l-0.149,0.102l0.299,0.897l0.101,0.249l0.199,0.149l0.3,0.051h0.3l1.098-0.2l0.5-0.198l0.149-0.101l0.05-0.101
		l0.05-0.101l0.1-0.1l0.101-0.101l0.101-0.05l-0.101-0.149l-0.149-0.249l-0.1-0.15l-0.1-0.05l-0.102-0.05l-0.1-0.05l-0.051-0.149
		l-0.1-0.05l-0.199-0.051h-0.55l-0.1,0.051l-0.05,0.1l-0.051,0.199l-0.25-0.149l-0.549-0.25l-0.1-0.148l-0.05-0.25l-0.25-0.499
		l-0.449-0.599l-0.199-0.199l-0.449-0.15l-0.05-0.199l0.149-0.148h0.25l-0.101-0.102l-0.101-0.05l-0.299-0.05l0.148-0.1l0.3-0.051
		h0.35h0.25l-0.051,0.101l-0.05,0.1l0.149,0.05h0.1l0.101-0.05l0.051,0.25l0.148,0.199l0.698,0.6l0.102,0.149l0.05,0.249l-0.05,0.25
		l0.05,0.148l0.148,0.051h0.101l0.2,0.05h0.349l0.2,0.051l0.148,0.149l0.2,0.249l-0.101,0.101l0.051,0.1l0.349,0.199l0.25,0.399
		l0.101,0.05l0.148,0.101l0.102,0.051h0.05l0.1-0.051l0.051-0.051l0,0l0.25-0.05l0.1,0.05v0.2l0.599-0.449l0.2-0.1l0.149-0.05h0.05
		l0.05-0.052l0.1-0.05h0.399l0.05,0.102h0.149l0.3,0.198l0.499,0.399l0.25,0.149l0.199-0.051l0.1-0.198v-0.301l0.05,0.051l0.15,0.05
		l0.05,0.05l0.05-0.199l0.101-0.1l0.148-0.102l0.051-0.148l0.051-0.101l0.299-0.05l0.05-0.1l-0.1-0.15l-0.399-0.35l-0.1-0.199
		v-0.149l0.1-0.1l0.15-0.2l-0.15-0.398l-0.1-0.149l-0.301-0.1l-0.05-0.05l-0.05-0.051l-0.148-0.051h-0.199h-0.051l-0.051-0.05
		l-0.249,0.05l-0.1-0.1l-0.05-0.149l-0.051-0.05l-0.149-0.05l-0.1-0.102l-0.101-0.1l-0.101-0.1l-0.35-0.101l-0.149-0.05l-0.35-0.05
		l-0.35-0.051h-0.2l0.2-0.199v-0.101l-0.149-0.05h-0.25h-0.1l-0.35,0.101h-0.051l-0.1,0.1h-0.05l-0.05-0.05l-0.052-0.05
		l-0.249-0.149l-1.746-0.499h-0.3l-0.25,0.05l-0.198,0.101l-0.15,0.148h0.15l0.1,0.05l0.1,0.051l0.101,0.101l-0.249,0.05
		l-0.351-0.05l-0.198,0.05l-0.102-0.25h-0.299l-0.399,0.101h-0.25l-0.249,0.101l-0.35-0.051l-0.1,0.149l-0.15-0.1l-0.05-0.051
		l-0.149,0.25l-0.05,0.1l-0.05-0.05l-0.05-0.05l-0.05-0.05l-0.051,0.148v0.05l-0.199-0.198l-0.101-0.101l-0.1-0.05l-0.15,0.249
		l-0.249,0.149l-0.549,0.199l-0.05-0.05l-0.051-0.05h-0.101l0.05,0.05l0.051,0.249l-0.249-0.148l-0.149-0.199l-0.15-0.102
		l-0.299,0.051l0.05,0.149l0.051,0.199v0.15l-0.149,0.05l-0.15-0.05l-0.05-0.15v-0.199l-0.05-0.2l-0.05,0.102l-0.05,0.1l-0.05,0.101
		l-0.051,0.05l-0.149-0.101h-0.149l-0.148,0.051l-0.051,0.148l0.051,0.2l0.198,0.249l0.051,0.15l0.1,0.1l0.2,0.1l0.199,0.101h0.149
		l0.05-0.101l-0.05-0.148l-0.101-0.2l-0.05-0.199l0.101,0.05h0.1l0.101-0.1l0.05-0.2h0.1v0.351l0.15,0.05l0.149-0.149l0.1-0.25
		l0.1,0.2v0.199l-0.1,0.149l-0.199,0.051l0.149,0.1h0.25l0.148,0.05l-0.05,0.149l-0.3,0.3h-0.199h-0.2h-0.198h-0.15l-0.249,0.05
		l-0.449,0.05v-0.05h-0.3l-0.05,0.05h-0.101l-0.199-0.1h-0.101h-0.299l0.199,0.148L447.838,470.211z M458.917,480.342l0.051-0.05
		v-0.1l-0.051-0.051v-0.05l-0.05-0.1l-0.05-0.051l-0.398,0.101l-0.2,0.1v0.149l-0.101,0.2v0.1l-0.05,0.101v0.3v0.05v0.05v0.05l0,0
		v-0.05l0,0l0.05,0.05h0.101h0.05l-0.05-0.05l-0.05-0.05h0.149l0.05-0.05l-0.101-0.05l0,0h0.101l0.051-0.052l-0.051-0.1v-0.05
		l0.149-0.05h0.148l0.051-0.051v-0.148v-0.05L458.917,480.342z M451.081,495.415h-0.148l-0.05,0.05h-0.102l-0.05,0.05h0.15h0.05
		l0.199-0.1l0.05-0.05l0.05-0.05v-0.052h-0.05L451.081,495.415z M487.166,498.858h0.101v-0.149l-0.05-0.15l-0.102-0.198
		l-0.199-0.199l-0.198-0.05l-0.15,0.1v0.149l0.3,0.398L487.166,498.858z M489.012,498.459l0.101,0.2l0.101,0.148l0.448,0.199
		l0.051,0.051v0.051h0.3l0.249-0.301v-0.25l-0.149-0.1l-0.1-0.05l-0.15-0.101l-0.148-0.1h-0.101v0.1l-0.2-0.1l-0.398-0.2
		l-0.199,0.102l0.1,0.198L489.012,498.459z M498.346,510.787c-0.051,0-0.051-0.05-0.102-0.05l-0.299-0.2
		c-0.149-0.101-0.25-0.299-0.25-0.499l0.05-0.399c0-0.05,0-0.1,0.051-0.1l0.199-0.599c0,0,0-0.051,0.051-0.051l0.35-0.698
		l0.299-0.449c0,0,0-0.05,0.05-0.05l0.351-0.399l0.05-0.05l1.099-0.898l0.199-0.299l-0.05-0.449c0-0.051,0-0.101,0-0.149l0.05-0.149
		c0-0.1,0.05-0.2,0.149-0.25l0.101-0.1c0.05-0.05,0.05-0.05,0.101-0.101l0.198-0.148l0.15-0.102l2.096-1.695l-0.1-3.194l-0.101-0.35
		l-0.05-0.051l-0.101-0.1l-0.101-0.05l-0.198-0.05c-0.051,0.05-0.102,0.05-0.102,0.05l-0.499,0.199l0,0l-0.1,0.148l-0.05,0.15
		l-0.051,0.199v0.25l0.051,0.249v0.05l0.148,0.3c0,0,0,0.05,0.05,0.05l0.052,0.15c0,0.05,0,0.1,0.05,0.148v0.149v0.05v0.3v0.101
		v0.05l0.1,0.2v0.05l0.05,0.1c0,0.05,0.051,0.101,0.051,0.149l0.1,0.448l0.05,0.101c0.102,0.2,0.05,0.5-0.148,0.648l-0.351,0.249
		c-0.05,0-0.05,0.052-0.1,0.052l-0.199,0.1c-0.05,0.05-0.102,0.05-0.2,0.05h-0.35c-0.149,0-0.249-0.05-0.35-0.148
		c-0.101-0.102-0.149-0.2-0.149-0.351l-0.249-0.499c0-0.05,0-0.05-0.05-0.101l-0.101-0.249l-0.051-0.05l-0.1-0.101
		c-0.051,0-0.051-0.051-0.051-0.101l-0.1-0.149c-0.05-0.05-0.05-0.148-0.1-0.198l-0.15-0.749l-0.05-0.199l-0.149-0.15
		c-0.1-0.1-0.148-0.249-0.148-0.449v-0.1l-0.2-0.399c0-0.05,0-0.05-0.05-0.1l-0.101-0.399l-0.05-0.148l-0.1-0.1l-0.052-0.051
		c-0.05,0-0.05-0.051-0.1-0.051l-0.199-0.148l-0.05-0.051l-0.15-0.198c-0.05-0.052-0.05-0.102-0.1-0.15l-0.1-0.199l-0.449-0.35
		c-0.05,0-0.05-0.05-0.05-0.05l-0.149-0.149l-0.051-0.05l-0.149-0.2c0,0-0.05-0.05-0.05-0.1l-0.1-0.2c0-0.05-0.05-0.101-0.05-0.101
		l-0.051-0.148l-0.101-0.101c-0.05-0.05-0.1-0.149-0.1-0.199l-0.051-0.149c0-0.05-0.05-0.149,0-0.199v-0.101v-0.05l0.051-0.199
		v-0.101l-0.149-0.35c0-0.05-0.05-0.1-0.05-0.148l-0.05-0.25c0-0.051,0-0.101,0-0.101v-0.149v-0.101l0.05,0.15
		c-0.05-0.052-0.15-0.102-0.2-0.2l-0.05-0.101c-0.05-0.05-0.05-0.148-0.05-0.25v-0.249c0-0.05,0-0.1,0-0.149l0.199-0.798
		c0-0.05,0.051-0.101,0.101-0.15l0.05-0.05l0.05-0.05v-0.05l-0.05-0.898l-0.499-2.495l-0.146-0.498c0-0.05,0-0.05,0-0.1l-0.052-0.2
		c0-0.05,0-0.149,0-0.199l0.052-0.149c0-0.051,0.05-0.101,0.05-0.149l0.1-0.1c0.05-0.05,0.101-0.101,0.149-0.15l0.1-0.05
		c0.05-0.05,0.102-0.05,0.2-0.05h0.05l0.05-0.101c0.05-0.05,0.05-0.05,0.101-0.1l0.149-0.1l0.6-0.601l0.05-0.05v-0.1l0.05-0.749
		v-0.499c0-0.051,0.05-0.149,0.1-0.199l0.15-0.25c0-0.05,0.05-0.05,0.05-0.05l0.35-0.55l-0.799-1.446l0,0l-0.101-0.05
		c-0.05,0-0.1-0.051-0.1-0.051l-0.249-0.149l-0.051-0.05l-0.25-0.249l-0.05-0.051l-0.199-0.199
		c-0.051-0.051-0.051-0.051-0.051-0.101l-0.199-0.35l-0.1-0.101c0,0,0-0.05-0.05-0.05l-0.05-0.148
		c-0.051-0.051-0.051-0.102-0.051-0.2l-0.051-0.199l-0.148-0.2c0-0.05-0.05-0.05-0.05-0.1l-0.55-1.099
		c-0.1-0.199-0.05-0.448,0.149-0.6l0.1-0.1c0.05,0,0.05-0.051,0.102-0.051v-0.148c0-0.05,0-0.149,0.05-0.2l0.1-0.148
		c0.05-0.101,0.149-0.199,0.3-0.249l0.199-0.052c0.05,0,0.05,0,0.101,0l-0.05-0.05l0,0H496.2l-0.25-0.05c-0.05,0-0.1-0.05-0.198-0.1
		l-0.149-0.101l-0.05-0.05l-0.699-0.699h-0.05h-0.199h-0.05h-0.5l-0.648,0.101l-0.1,0.051c-0.05,0-0.05,0-0.101,0h-0.149
		c-0.101,0-0.249-0.051-0.349-0.15l-0.15-0.1c-0.05,0.1-0.149,0.199-0.249,0.25l-0.15,0.05c-0.05,0-0.1,0.05-0.198,0.05l-1.148-0.05
		c-0.05,0-0.05,0-0.1,0l-0.3-0.05c-0.051,0-0.101,0-0.101-0.051l-0.05-0.051c-0.101,0.102-0.199,0.2-0.35,0.2h-0.101
		c-0.05,0-0.149,0-0.199-0.05l-0.1-0.05l-2.047-0.25c-0.051,0-0.101,0-0.149-0.05l-0.148-0.051c0,0-0.051,0-0.051-0.05l-0.55-0.35
		c-0.05-0.05-0.1-0.05-0.1-0.101l-0.101-0.149c-0.05-0.05-0.05-0.05-0.05-0.101l-0.2-0.198l-0.249-0.25l-1.548-1.099h-0.199h-0.05
		h-0.05h-0.15c-0.1,0-0.148-0.05-0.198-0.1l-0.101-0.05c-0.05-0.051-0.05-0.051-0.1-0.102l0,0h-0.051h-0.199
		c-0.05,0-0.101,0-0.149-0.05l-0.1-0.05c-0.051,0-0.102-0.05-0.102-0.05l-0.148-0.101l-0.399-0.199c0,0-0.05,0-0.05-0.051
		l-0.199-0.148c-0.05-0.05-0.101-0.101-0.149-0.149h-0.05l-0.149,0.05c-0.05,0-0.05,0-0.1,0c-0.051,0-0.051,0-0.102,0l-0.249-0.05
		c-0.05,0-0.1,0-0.148-0.051l-2.296-1.098l-0.2,0.05c-0.05,0-0.101,0-0.149,0h-0.05l-2.995-0.249l-0.397,0.05l-1.05,0.299
		c-0.05,0-0.05,0-0.1,0h-0.3l-0.149,0.051l-0.35,0.199c0,0-0.05,0-0.05,0.05l-0.449,0.149l-0.399,0.2c-0.05,0-0.1,0.05-0.1,0.05
		h-0.101l-0.498,0.3v0.05l-0.2,0.499c0,0.05-0.05,0.05-0.05,0.101l-0.101,0.1c-0.1,0.101-0.199,0.2-0.299,0.2h-0.15l-0.599,0.199
		l-0.25,0.148l-0.299,0.25l-0.499,0.499l-0.25,0.549c0,0.051-0.05,0.101-0.101,0.149l-0.1,0.101c-0.05,0.051-0.15,0.101-0.25,0.149
		l-0.149,0.05l-1.048,0.351H467.1l-2.346,0.448l0,0c-0.05,0.051-0.101,0.101-0.149,0.101l-0.249,0.1h-0.05l-0.25,0.102h-0.05
		l-0.2,0.05c-0.05,0-0.05,0-0.1,0c-0.101,0-0.249-0.05-0.3-0.102c-0.101-0.1-0.149-0.198-0.199-0.349h-0.249h-0.051l-0.101,0.05
		c-0.05,0-0.05,0.05-0.1,0.05l-0.149,0.051l-0.05,0.05c-0.05,0.1-0.15,0.148-0.25,0.2l-0.199,0.05c-0.05,0-0.101,0-0.101,0.05
		l-0.499,0.05l-0.748,0.199l0.499,0.499c0.1,0.101,0.148,0.25,0.148,0.398c0,0.15-0.1,0.301-0.249,0.351v0.05l-0.05,0.399l0.05,0.1
		c0.05,0.2,0,0.399-0.2,0.549l0,0l0.051,0.3c0,0.051,0,0.101,0,0.149l-0.051,0.2c0,0.05-0.05,0.1-0.05,0.148l-0.148,0.25
		l-0.05,0.101c0,0.05,0,0.05-0.051,0.1l-0.05,0.101c0,0.05-0.051,0.05-0.051,0.1l-0.299,0.399l-0.15,0.448
		c0,0.05-0.05,0.101-0.05,0.15l-0.1,0.148c-0.051,0.101-0.149,0.149-0.249,0.199l-0.351,0.102h-0.05l-0.948,0.148l-0.05,0.05
		l-0.101,0.101c0,0.05-0.051,0.1-0.101,0.149c0,0.051,0,0.101-0.05,0.149l-0.35,1.048c0,0.05-0.051,0.101-0.051,0.149l-0.05,0.101
		c0,0.05-0.05,0.05-0.05,0.101l-0.1,0.1c0,0,0.848-0.05,0.897-0.05l0.549,0.05c0.051,0,0.101,0,0.149,0.05l0.499,0.2
		c0.05,0,0.05,0.05,0.1,0.05l0.15,0.101c0,0,0.05,0,0.05,0.05l0.101,0.1c0.05,0.05,0.05,0.05,0.1,0.101l0.05,0.101l0.2-0.101
		c0.05-0.051,0.1-0.051,0.148-0.051l0.351-0.05l0.05-0.05l-0.148-0.1c-0.052,0-0.052-0.051-0.102-0.051l-0.199-0.25
		c-0.1-0.1-0.148-0.249-0.148-0.398l0.05-0.199c0-0.149,0.1-0.3,0.249-0.399c0.05-0.05,0.15-0.05,0.2-0.05c0.1,0,0.198,0,0.249,0.05
		l0.499,0.301h0.05l0.3-0.101c0.05,0,0.1,0,0.149,0c0.101,0,0.199,0.05,0.3,0.101l0.148,0.1c0.051,0,0.051,0.05,0.101,0.05
		l0.149,0.149c0.051,0.05,0.051,0.101,0.101,0.149l0.1,0.149c0.05,0.149,0.05,0.25,0,0.399v0.05l0.05,0.05
		c0.051-0.05,0.051-0.05,0.102-0.101l0.1-0.05c0.05,0,0.101-0.05,0.101-0.05l0.148-0.05c0.05,0,0.05,0,0.102,0c0,0,0.148,0,0.198,0
		c0.051,0,0.101,0,0.149,0l0.101,0.05c0.051,0,0.051,0,0.101,0.05l0,0h0.35h0.05l0.249,0.05c0.051,0,0.101,0,0.149,0.051l0.2,0.1
		c0.05,0,0.1,0.05,0.148,0.1l0.3,0.25l0.101,0.051h0.05h0.1l0.2-0.101c0.05,0,0.05,0,0.101-0.05l0.25-0.05c0.05,0,0.05,0,0.1,0
		s0.101,0,0.199,0.05l0.25,0.1c0.1,0.051,0.148,0.101,0.199,0.149c0.05-0.199,0.149-0.349,0.35-0.399c0.05,0,0.1-0.05,0.149-0.05
		c0.149,0,0.3,0.05,0.398,0.15l0.25,0.299c0.101,0.102,0.101,0.2,0.101,0.3l0,0c0.05-0.05,0.1-0.05,0.148-0.05l0.149-0.05
		c0.051,0,0.051,0,0.101,0c0.101,0,0.249,0.05,0.35,0.148l0.5-0.198c0.05-0.05,0.148,0,0.198,0h0.25c0.199,0,0.35,0.05,0.449,0.198
		c0.1,0.149,0.1,0.351,0,0.499l-0.051,0.101c0,0.05-0.05,0.05-0.05,0.101l-0.249,0.249c-0.05,0.05-0.05,0.05-0.101,0.101
		l-0.101,0.05c-0.05,0-0.101,0.05-0.149,0.05l-0.198,0.051c0,0.05-0.052,0.05-0.102,0.101l-0.05,0.05l-0.05,0.148
		c0.1,0.051,0.2,0.2,0.2,0.301h0.1l0.35-0.2c0.051-0.05,0.149-0.05,0.199-0.05c0,0,0.3-0.051,0.351-0.051
		c0.148,0,0.299,0.051,0.398,0.2c0.1,0.101,0.149,0.299,0.1,0.449v0.1v0.101c0,0.05,0,0.148,0,0.2l-0.05,0.198
		c0,0.101-0.05,0.149-0.149,0.199l-0.149,0.15l-0.05,0.05l-0.199,0.149l-0.101,0.148l-0.149,0.2l-0.05,0.05l-0.199,0.199v0.05
		c0,0.051,0,0.102,0,0.102v0.148c0,0.05,0,0.05,0,0.1v0.2l0.101,0.05c0.1,0.051,0.198,0.101,0.249,0.199l0.05,0.101
		c0.05,0.101,0.05,0.199,0.05,0.35v0.15v0.05l0.101,0.05c0.051,0.05,0.101,0.1,0.149,0.149l0.149,0.199l0.55-0.149
		c0.05,0,0.05,0,0.1,0l0.349-0.05h0.052c0.249,0,0.448,0.148,0.499,0.398c0.05,0.249-0.102,0.499-0.301,0.6l-0.198,0.05l0,0
		c0,0.05-0.052,0.1-0.052,0.1l-0.05,0.102c-0.05,0.05-0.1,0.1-0.198,0.148l0,0l1.696,0.699c0.05,0,0.101,0.05,0.101,0.05
		l0.249,0.199c0.05,0.05,0.05,0.05,0.101,0.1l0.199,0.301c0,0,0,0.05,0.05,0.05l0.149,0.25l0.101,0.148l0.149,0.101l0.3,0.05
		l0.349-0.101l0.85-0.499c0.05-0.05,0.1-0.05,0.148-0.05l0.799-0.148l0.15-0.102c0,0,0.05,0,0.05-0.05l0.249-0.1
		c0.05,0,0.149-0.05,0.2-0.05c0.05,0,0.1,0,0.1,0l0.299,0.05c0.052,0,0.102,0.05,0.15,0.05l0.249,0.148
		c0.05,0,0.05,0.052,0.101,0.052l0.149,0.1c0.05,0.05,0.1,0.149,0.149,0.199l0.1,0.25v0.05l0.05,0.249v0.05l0.051,0.051l0.101,0.051
		c0.1,0,0.148,0.05,0.199,0.1l0.698-0.449c0,0,0.051,0,0.051-0.05l0.299-0.149c0.051,0,0.101-0.051,0.101-0.051l0.299-0.05
		c0.051,0,0.051,0,0.102,0c0.05,0,0.05,0,0.1,0l0.299,0.05c0.051,0,0.102,0,0.15,0.051l0.698,0.35l0.35,0.05l0.351-0.1l0.448-0.199
		c0.051,0,0.051,0,0.101-0.05l0.599-0.15c0.05,0,0.05,0,0.1,0l0.551-0.05l0.148-0.05l0.351-0.199c0.05-0.05,0.148-0.05,0.198-0.05
		l0.301-0.052h0.05l0.449,0.052l0.448-0.102c0,0,0.051,0,0.101,0l0.3-0.05h0.05c0.149,0,0.249,0.05,0.35,0.15l0.101,0.1h0.1
		l0.55-0.05h0.05c0.05,0,0.1,0,0.149,0l0.249,0.05h0.051l0.35,0.149l0.199-0.051c0.05-0.1,0.101-0.198,0.199-0.3
		c0.101-0.05,0.199-0.1,0.3-0.1c0.051,0,0.101,0,0.149,0.05l0.199,0.1c0.1,0.052,0.149,0.102,0.2,0.15l0.1-0.2
		c0.101-0.199,0.249-0.299,0.449-0.299c0,0,0,0,0.05,0c0.199,0,0.399,0.149,0.449,0.349l0.05,0.15c0.05-0.05,0.05-0.05,0.101-0.05
		l0.199-0.102c0,0,0.051,0,0.051-0.05l0.1-0.05v-0.05c0.05-0.149,0.149-0.249,0.3-0.3l0.199-0.051c0.05,0,0.1,0,0.149,0h0.398
		l0.3-0.198c0.05-0.05,0.101-0.05,0.149-0.05l0.1-0.051c0.05,0,0.05,0,0.102,0h0.05l0.148-0.199c0-0.051,0.051-0.051,0.101-0.101
		l0.05-0.05c0.101-0.1,0.2-0.149,0.35-0.149h0.149c0.051,0,0.051,0,0.101,0h0.051h0.05c0.05,0,0.1,0,0.1-0.051
		c0,0,0.3-0.05,0.351-0.05c0.05,0,0.05,0,0.1,0l0.25,0.05c0.249,0.051,0.449,0.25,0.398,0.55v0.149c0,0.05-0.051,0.148-0.051,0.199
		l0.051,0.051c0.101,0.1,0.149,0.299,0.149,0.449c0,0.05,0,0.1-0.05,0.1l0.1,0.249c0,0.05,0.051,0.1,0.051,0.15l0.05,0.299
		c0,0.05,0,0.05,0,0.1l-0.05,0.351c0,0.05,0,0.1-0.051,0.1l-0.05,0.15c0.05,0.05,0.101,0.1,0.101,0.198
		c0.05,0.149,0.05,0.351-0.051,0.499h0.101c0.2,0,0.398,0.101,0.449,0.301c0.1,0.198,0.05,0.398-0.101,0.549l-0.25,0.199
		c-0.1,0.101-0.199,0.101-0.299,0.149l-0.399,0.05h-0.05h-0.05h-0.2l0.05,0.101c0.102,0.148,0.102,0.449,0,0.599
		c-0.1,0.15-0.248,0.351-0.448,0.351h-0.101c-0.148,0-0.3-0.149-0.398-0.301l-0.101-0.148l-0.1-0.101c0,0.101-0.05,0.149-0.15,0.199
		l0.052,0.05c0.05,0.052,0.05,0.102,0.1,0.15l0.05,0.1c0.05,0.101,0.05,0.199,0.05,0.25l-0.1,0.748v0.25v0.05l-0.05,0.199
		c0,0.101-0.102,0.25-0.15,0.3l-0.05,0.051c-0.1,0.1-0.199,0.1-0.299,0.1c-0.15,0-0.25-0.05-0.351-0.149l-0.148-0.148
		c-0.051-0.051-0.102-0.15-0.15-0.2l-0.148-0.499l-0.051-0.1l-0.148,0.499l-0.051,0.148v0.15l0.051,0.148c0,0.051,0,0.051,0,0.101
		v0.148c0,0.102-0.051,0.2-0.102,0.25l-0.1,0.149c-0.1,0.15-0.249,0.2-0.399,0.2c-0.05,0-0.05,0-0.1,0
		c-0.199-0.05-0.35-0.15-0.398-0.351L490.917,501c-0.05-0.1-0.05-0.2,0-0.3l0.05-0.149l0.05-0.1v-0.649v-0.05l-0.148-0.1h-0.052
		h-0.1l-0.05,0.05c-0.05,0-0.05,0.05-0.101,0.05l-0.25,0.1h-0.05l0,0c-0.05,0.2-0.199,0.301-0.398,0.351l-0.249,0.05h-0.051
		c-0.05,0-0.05,0-0.1,0l-0.101,0.3c-0.051,0.101-0.149,0.199-0.249,0.249l-0.2,0.102c-0.05,0.05-0.149,0.05-0.199,0.05
		s-0.05,0-0.1,0l-0.051,0.1c-0.05,0.199-0.25,0.351-0.448,0.351h-0.301c-0.148,0-0.3-0.052-0.398-0.2
		c-0.099-0.149-0.149-0.299-0.101-0.449l0.051-0.249v-0.999v-0.05l0.05-0.249l0,0h-0.05l0,0c-0.101,0.05-0.199,0.1-0.301,0.1
		c-0.05,0-0.1,0-0.148,0c-0.149-0.05-0.249-0.148-0.299-0.3l-0.051-0.148c0-0.051-0.051-0.101-0.051-0.149l-0.05-0.3l-0.398-0.199
		h-0.051l-0.249,0.1c-0.05,0-0.05,0-0.101,0l-0.199,0.051c-0.05,0-0.05,0-0.1,0s-0.05,0-0.101,0l-0.149-0.051l-0.149,0.051h-0.05
		l-0.1,0.05c-0.051,0-0.051,0-0.102,0h-0.05l-0.249,0.05l-0.897,0.399l-0.101,0.05l-0.05,0.149c0,0.051-0.051,0.101-0.102,0.149
		l-0.697,0.799l-0.25,0.549c-0.05,0.101-0.101,0.149-0.149,0.199l-0.25,0.2l-0.599,0.848l-0.05,0.051l-0.249,0.249l-0.052,0.051
		l-0.748,0.549l-0.05,0.05l-0.1,0.051l-0.051,0.05c-0.051,0.051-0.051,0.051-0.101,0.101l-0.249,0.148
		c-0.05,0.051-0.101,0.051-0.101,0.051l-0.101,0.05c-0.05,0-0.1,0.051-0.148,0.051h-0.2c-0.05,0-0.1,0-0.149-0.051l-0.448-0.149
		c-0.101-0.05-0.149-0.05-0.199-0.148l-0.699-0.749l-0.299-0.199h-0.101h-0.249h-0.051l-0.25-0.05c-0.05,0-0.05,0-0.1,0
		c-0.05,0.148-0.25,0.249-0.399,0.299h-0.1l-0.2,0.101c-0.05,0.05-0.148,0.05-0.249,0.05h-0.199c-0.199,0-0.398-0.199-0.448-0.35
		c-0.052-0.1-0.052-0.3-0.052-0.3l0,0c-0.05,0-0.05,0.05-0.1,0.05h-0.199c-0.05,0-0.1,0-0.1,0l-0.5-0.1l-0.101,0.1h-1.298
		c0,0,0,0,0,0.05c0,0.2-0.148,0.351-0.349,0.399l-0.351,0.101h-0.05l-0.3,0.05c-0.05,0-0.05,0-0.1,0h-0.2
		c-0.101,0.149-0.249,0.249-0.398,0.249c0,0.101,0,0.2-0.051,0.301l-0.1,0.198c-0.05,0.051-0.101,0.15-0.149,0.15
		c0,0.05,0,0.149,0,0.199l-0.05,0.148c0.05,0,0.1,0,0.149,0.051c0.1,0.051,0.25,0.149,0.3,0.25c0.05,0,0.1-0.051,0.148-0.051
		s0.149,0,0.2,0.051l0,0c0.05-0.051,0.149-0.051,0.199-0.051s0.1,0,0.148,0.051c0.051-0.101,0.15-0.199,0.25-0.25
		c0.051-0.051,0.149-0.051,0.199-0.051c0.101,0,0.15,0,0.25,0.051l0.149,0.051c0,0,0.05,0,0.05,0.05l0.1,0.05h0.052h0.05h0.397
		h0.052h0.148h0.05l0.6,0.149c0.05,0,0.149,0.05,0.2,0.1l0.198,0.15c0.101,0.05,0.149,0.148,0.2,0.299c0,0,0.05,0,0.05,0.05
		l1.397,0.799c0.05,0.05,0.1,0.05,0.148,0.101l0.101,0.101l0.05,0.05l0.05,0.05c0.05,0,0.102,0.051,0.102,0.051l0.1,0.05
		c0.05,0,0.05,0.05,0.1,0.1l0.2,0.2l0,0l0.149,0.05c0.1,0.05,0.199,0.101,0.249,0.199l0.101,0.149c0,0,0,0.051,0.05,0.101v0.05
		l0.051,0.05l0.05,0.101c0,0.05,0.05,0.05,0.05,0.1l0.05,0.2l0.3,0.149l0.051,0.05l0.1,0.05c0.1,0.101,0.148,0.2,0.199,0.3
		l0.051,0.199c0,0.149,0,0.3-0.102,0.398l0.051,0.101c0.051,0.051,0.051,0.051,0.051,0.101l0.199,0.399l0,0l0.05,0.05v-0.101
		c0-0.101,0.05-0.199,0.1-0.249l0.05-0.101c0.051-0.05,0.102-0.101,0.2-0.149l0.101-0.051c0.05,0,0.1-0.05,0.1-0.05l0.399-0.1
		c0.05,0,0.05,0,0.1,0h0.05h0.25c0.05,0,0.149,0.05,0.199,0.05l0.2,0.149c0.1,0.05,0.199,0.149,0.249,0.3l0.101,0.3
		c0,0.05,0.05,0.149,0,0.199l-0.101,0.749v0.199l0.101,0.499l0.05,0.1h0.149c0.05,0,0.149,0,0.199,0.051l0.101,0.05
		c0.101,0.05,0.199,0.149,0.249,0.3l0.15,0.448v0.05l0.05,0.051c0,0,0.05,0,0.05,0.051l0.149,0.1c0.05,0.05,0.1,0.101,0.1,0.149
		l0.1,0.148c0.102,0.15,0.102,0.351,0,0.499l-0.05,0.102c-0.05,0.05-0.1,0.148-0.148,0.148l-0.149,0.101l-0.1,0.1v0.051v0.051
		c0,0.05,0,0.1,0,0.198v0.101c0,0.149-0.051,0.25-0.15,0.35l-0.1,0.1c-0.101,0.051-0.199,0.101-0.3,0.15l-0.499,0.05h-0.051
		c-0.05,0-0.1,0-0.148,0l-0.549-0.149l-0.25-0.051v0.051l0.648,1.298c0.05,0.05,0.05,0.1,0.05,0.2v0.148v0.05v0.25l0.051,0.051
		c0.05,0.05,0.1,0.1,0.1,0.148l0.3,0.749c0,0.05,0,0.05,0.05,0.1v0.149c0,0.05,0,0.05,0,0.1v0.15c0,0.05,0,0.1-0.05,0.149l0.05,0.05
		v0.05l0.101,0.25l0.05,0.05h0.05l0.25,0.15c0.05,0,0.05,0.049,0.101,0.049l0.148,0.1c0.05,0.053,0.101,0.104,0.101,0.15l0.05,0.15
		c0.051,0.049,0.051,0.148,0.051,0.25v0.1l0.549,0.199h0.05l0.3-0.35c0.051-0.051,0.101-0.1,0.149-0.15l0.199-0.1
		c0.05-0.049,0.15-0.049,0.25-0.049h0.35c0.051,0,0.051,0,0.101,0l1.048,0.199h0.499l0.35-0.102l0.149-0.1l1.447-1.546l0.149-0.3
		c0-0.05,0.05-0.05,0.05-0.101l0.101-0.149c0.05-0.05,0.05-0.05,0.1-0.101l0.149-0.1l-0.249-0.199
		c-0.101-0.051-0.149-0.149-0.149-0.25l-0.149-0.549c-0.051-0.1,0-0.2,0-0.3l0.149-0.449c0-0.05,0.05-0.148,0.101-0.199l1.247-1.247
		c0.051-0.051,0.101-0.101,0.149-0.101l0.199-0.1c0,0,0.05,0,0.05-0.05l0.15-0.052l0.148-0.1l0.149-0.149l0.05-0.05l0.05-0.1v-0.15
		l-0.05-0.148l-0.1-0.101l-0.101-0.1l-0.449-0.15c0,0-0.05,0-0.05-0.05l-0.35-0.149c-0.149-0.1-0.351-0.25-0.351-0.448v-0.101
		c0-0.149,0.15-0.25,0.25-0.35c0.051-0.05,0.149-0.1,0.199-0.1v-0.051c0-0.051,0-0.149,0-0.199v-0.101c0-0.148,0.102-0.3,0.25-0.35
		c0.101-0.05,0.149-0.05,0.249-0.05c0.05,0,0.102,0,0.15,0.05l0.148,0.05c0.101,0.05,0.149,0.1,0.199,0.149l0.051,0.051
		c0.05,0.05,0.05,0.1,0.101,0.1l0.1,0.249l0.351-0.05l0.299-0.449l-0.101-2.046c0-0.05,0-0.1,0-0.1l0.15-0.85
		c0-0.1,0.05-0.148,0.1-0.199l0.299-0.35l0.051-0.05l0.35-0.351l0.05-0.05l0.2-0.148c0,0,0.05-0.052,0.1-0.052l0.749-0.349
		l0.051-0.15c0-0.05,0.05-0.1,0.05-0.1l0.05-0.1l0,0c-0.149-0.2-0.1-0.499,0.149-0.699l0.1-0.05c0.101-0.051,0.15-0.101,0.25-0.101
		h0.149l0.149-0.05c0.05,0,0.101,0,0.149,0c0.148,0,0.249,0.05,0.35,0.149l0.1,0.1l0.051,0.051l0.1,0.149l0.05,0.05l0.05,0.149
		c0,0.05,0.051,0.101,0.051,0.149v0.149c0,0.05,0,0.148,0,0.199l-0.051,0.199c0,0.051,0,0.051-0.05,0.101l-0.148,0.3v0.05v0.05
		l0.05,0.051l0.05,0.05l0,0h0.05c0.05,0,0.05,0,0.101,0.05l0.101,0.05c0.101,0.051,0.199,0.15,0.249,0.25l0.05,0.1
		c0,0.051,0.05,0.101,0.05,0.149c0.102,0.101,0.15,0.2,0.2,0.35c0,0.149-0.05,0.301-0.2,0.399l-0.198,0.149
		c-0.101,0.05-0.199,0.101-0.301,0.101c-0.1,0-0.248-0.051-0.349-0.15l-0.2-0.148l-0.05-0.05l-0.05-0.101l-0.1,0.149
		c-0.051,0.05-0.15,0.148-0.25,0.148l-0.249,0.051l-0.102,0.35c0,0.05-0.05,0.149-0.1,0.2l-0.149,0.199
		c-0.1,0.1-0.25,0.148-0.35,0.148h-0.05v0.05c0,0.052-0.051,0.102-0.051,0.15l-0.05,0.1c-0.05,0.101-0.148,0.199-0.25,0.25v0.398
		l0.2,0.897v0.051l0.05,0.3c0,0.05,0,0.1,0,0.148l-0.05,0.301c-0.05,0.148-0.1,0.25-0.25,0.3l-0.249,0.148
		c-0.05,0-0.05,0.05-0.101,0.05l-0.101,0.051l0.05,0.1l0.499,0.699c0.052,0.05,0.052,0.1,0.052,0.148l0.1,0.301l0.1,0.198
		c0,0.051,0.051,0.101,0.051,0.15v0.149c0.05,0,0.05,0,0.1,0l0,0l0.05-0.199c0-0.102,0.05-0.15,0.102-0.25l0.05-0.101
		c0-0.05,0.05-0.05,0.1-0.1l0.101-0.101l0.05-0.051l0.1-0.05c0.05,0,0.05-0.05,0.102-0.05l0.1-0.05c0.05,0,0.1,0,0.149,0
		c0.049,0,0.1,0,0.148,0.05l0.102,0.05c0.148,0.05,0.249,0.149,0.299,0.3l0.05,0.101c0.051,0.05,0.051,0.148,0.051,0.199v0.199
		v0.101l0.05,0.1l0.499,0.6l0.051,0.051l0.198,0.349c0,0,0.051,0.051,0.051,0.101l0.448,1.049l0.05-0.101
		c0.051-0.05,0.102-0.101,0.15-0.149l0.199-0.149c0.1-0.05,0.2-0.1,0.3-0.1c0.05,0,0.1,0,0.149,0l0.25,0.05
		c0.05,0,0.148,0.05,0.198,0.1h0.051v-0.148c0-0.101,0-0.25,0.05-0.351l0.05-0.1c0.05-0.1,0.2-0.2,0.3-0.2c0.05,0,0.101,0,0.101,0
		c0.1,0,0.199,0.051,0.25,0.102l0.249,0.148c0.05,0,0.05,0.05,0.1,0.05l0.2,0.2l0.05,0.05l0.148,0.199c0,0,0.051,0.05,0.051,0.1
		l0.25,0.499c0,0.051,0.05,0.102,0.05,0.102v0.1c0.05,0.149,0,0.35-0.149,0.449l-0.1,0.1l-0.051,0.051l0,0
		c0.051,0.05,0.051,0.1,0.051,0.148v0.05l0.05,0.2c0,0.05,0,0.05,0,0.1v0.051l0.1,0.05l0.199,0.05h0.2c0.05,0,0.05,0,0.1,0.051
		h0.051c0.1-0.149,0.25-0.3,0.448-0.3h0.051l-0.101-0.2c-0.1-0.198-0.1-0.448,0.101-0.599c0.1-0.1,0.199-0.149,0.35-0.149
		c0.1,0,0.199,0.051,0.3,0.101l0.448,0.3h0.101h0.249c0.051,0,0.051,0,0.101,0l0.149,0.05c0.101,0,0.149,0.05,0.249,0.101
		l0.102,0.05l0.05,0.05l0.1,0.15l0.199,0.198c0.05,0.05,0.05,0.05,0.102,0.101l0.148,0.25c0.05,0.1,0.101,0.249,0.05,0.35
		l0.149,0.199l0.549-0.149l0,0v-0.101c0-0.05,0-0.101,0.051-0.101l0.05-0.148c0.051-0.101,0.101-0.149,0.149-0.2l0.149-0.1
		l0.05-0.051l0.2-0.1l0,0c0.05-0.05,0.05-0.148,0.148-0.2l0.101-0.05c0.101-0.1,0.199-0.148,0.35-0.148c0.1,0,0.149,0,0.2,0.05
		l0.05,0.05l0.948,0.05h0.05l0.897,0.15h0.449c0,0,0.05,0,0.05-0.05l0.101-0.052c0.05,0,0.1-0.05,0.199-0.05h0.051h0.1
		c0.101,0,0.199,0.05,0.249,0.102l0.05,0.05l0.051,0.05h0.051c0.05,0,0.1-0.05,0.148-0.05c0.101,0,0.149,0,0.249,0.05
		c0.102,0.05,0.2,0.148,0.25,0.299l0.051,0.15c0.05,0.148,0,0.35-0.101,0.499l-0.05,0.05c-0.05,0.05-0.05,0.05-0.101,0.099
		l-0.249,0.15c-0.051,0-0.051,0.051-0.101,0.051l0,0l-0.05,0.049l-0.101,0.051c-0.051,0.049-0.101,0.049-0.149,0.049l-0.149,0.051
		c-0.05,0-0.05,0-0.1,0c-0.051,0-0.101,0-0.15-0.051l-0.1-0.049c-0.05,0-0.1-0.051-0.1-0.051l-0.25-0.15h-0.101l-0.998-0.049
		c-0.05,0-0.05,0-0.1,0l-0.499-0.1h-0.15h-0.1l-0.05,0.398l0.1,0.051c0.05,0.049,0.101,0.148,0.15,0.199l0.05,0.1
		c0.05,0.1,0.05,0.25,0,0.35l-0.102,0.25c0,0.051-0.05,0.102-0.1,0.148l0.25,0.051c0.149,0.049,0.299,0.199,0.349,0.352v0.1v0.049
		l0.052,0.4l0.549,0.396l0.05,0.053l0.149,0.1l0.35-0.051l4.392-5.49L498.346,510.787z M491.259,496.014l0.448-0.198l0.351-0.052
		l0.1-0.148l-0.05-0.149h-0.199l-0.149,0.05l-0.6,0.399l-0.1,0.149L491.259,496.014z M493.904,496.463h0.3l0.101-0.05l0.05-0.15
		l-0.05-0.1l-0.149-0.05l-0.35,0.05l-0.101,0.05l-0.051,0.102v0.1l0.15,0.05L493.904,496.463L493.904,496.463z M491.458,495.664
		l0.55-0.349l0.1-0.052l0.2-0.299v-0.05h-0.3l-0.149-0.05h-0.149l-0.051,0.1l-0.1,0.249l-0.1,0.101l-0.301,0.149l-0.05,0.101
		l0.05,0.05l0.101,0.05H491.458z M497.298,490.474l-0.199,0.6v0.2l0.299,0.599l0.25-0.3l0.3-0.449l0.149-0.449l-0.199-0.299
		l0.149-0.2l0.198-0.148l0.102-0.051l0.05-0.448v-0.199l-0.15-0.05l-0.148,0.1L497.298,490.474z M497.597,517.824v-0.05
		l-0.101-0.101l-0.05-0.051l-0.05-0.1v-0.051l-0.051-0.05l-0.05-0.05v0.05v0.05l-0.449-0.499l-0.249-0.148l-0.05-0.05l-0.55,0.05
		h-0.051v0.05l0.102,0.1l0.299,0.6l0.05,0.05l0.3,0.101l0.05,0.051l0.051,0.049h0.199l0.3,0.1l0.05,0.049l0.05-0.049l0.051-0.051
		L497.597,517.824l0.148,0.149l0.051,0.1l0.05,0.051l0.051-0.051v-0.049l-0.3-0.1V517.824L497.597,517.824z M492.955,495.215
		l0.199-0.1l0.15-0.399l0.05-0.05l-0.149-0.05l-0.25,0.1l-0.35,0.25l-0.199,0.249l0.05,0.101l0.149,0.051L492.955,495.215z
		 M454.626,478.396l0.248-0.05l0.351-0.25l0.3-0.1l0.1-0.05l0.101-0.101l0.05-0.1l-0.05-0.05h-0.101l-0.1-0.05l-0.051-0.102
		l0.051-0.1l0.1-0.05h0.101l0.1-0.051h0.05l0.15-0.05l0.1-0.05l-0.1-0.05h-0.15l-0.198-0.102l-0.149-0.05h-0.051l-0.199,0.05h-0.05
		h-0.149h-0.25l-0.1-0.05l-0.1-0.1l-0.052,0.148l0.2,0.25l-0.05,0.149l0.1,0.1v0.051v0.101l-0.249-0.25l-0.25,0.05l-0.3,0.15
		l-0.299,0.1l-0.2-0.05l-0.299-0.101l-0.2-0.051l-0.1,0.051l-0.101,0.051l-0.1,0.05l-0.15-0.05v-0.051l0,0l0,0l0,0l-0.198-0.101
		l-0.2,0.05l-0.35,0.25v-0.148l-0.051-0.102l-0.1-0.05l-0.101-0.05l-0.148,0.35l-0.399,0.05l-0.3-0.148l0.102-0.3l-0.15-0.05h-0.149
		l-0.1,0.198l-0.05,0.25h-0.102v-0.148v-0.2l-0.148,0.15v0.498l-0.149,0.149l0.101,0.249l-0.149,0.101l-0.25,0.101l-0.1,0.199
		l0.448-0.199l0.199-0.101l0.101,0.101h0.101l0.1-0.149h0.149l0.2,0.05h0.249l-0.149,0.051l-0.3,0.198v0.101l0.549-0.101l0.998-0.05
		l1.848-0.398L454.626,478.396z M455.972,494.566l-0.101-0.101h-0.1h-0.05h-0.05h0.05l0.05,0.05h0.05l0,0l0.05,0.051l0.101,0.05
		h0.051l0.149,0.05l0,0l-0.101-0.05L455.972,494.566z M451.83,492.72h0.101v-0.05h-0.15h-0.199l0,0h-0.05l-0.05-0.05l0,0l-0.05,0.05
		l0,0l0,0h-0.05l0,0v0.05l0.1,0.05h0.149h0.05h0.05l0.15,0.051h-0.051V492.72L451.83,492.72z M458.069,480.991v-0.601l-0.05-0.148
		l-0.1-0.199v-0.05l0.05-0.15l0.199-0.199v-0.1l-0.3-0.449l-0.101-0.101l-0.1-0.101h-0.051h-0.05l-0.599,0.051l-0.3-0.051h-0.199
		h-0.051l-0.051,0.051l-0.05-0.101l-0.199-0.199l-0.25-0.05l-0.299,0.05l-0.499,0.199l-0.5,0.3l-1.396,0.35l-0.399,0.2v0.198
		l0.499,0.449l0.149,0.25l0.148,0.3v0.3l-0.299,0.199l0.101,0.149l0.1,0.1l0.1,0.05l0.15,0.101l0.1,0.101v0.101v0.1l0.051,0.199l0,0
		l0.05,0.051l0.05,0.05l0.05,0.101v0.1v0.2v0.1l0.101,0.199l0.149,0.15l0.35,0.199l0.3,0.198l0.1,0.102l0.3,0.499l0.101,0.1
		l0.199,0.05l0.199-0.148l0.15-0.102h0.148l0.149,0.102l0.2,0.299l0.148,0.05l0.249-0.05l0.2-0.199l0.101-0.25l0.05-0.299l0.05-0.25
		l0.3-0.549L458.069,480.991z M451.98,495.714h-0.2l-0.199,0.05v0.052h0.101h0.25h0.1l0.149-0.052l-0.101-0.05H451.98z
		 M494.303,515.728l-0.25-0.397l-0.149-0.649l-0.148-0.198l-0.101-0.051l-0.101-0.051l-0.05,0.051v0.149l0.199,0.549l0.101,0.101
		l0.05,0.3l0.149,0.398l0.1,0.149l0.101,0.1l0.101,0.15v0.05l0.05,0.05l0.05-0.1l0.05-0.2l-0.1-0.249L494.303,515.728z
		 M489.661,520.868l-0.199-0.148l-0.249-0.1l-0.301-0.051h-0.35l-0.149-0.049l-0.148-0.051l-0.2-0.15l-0.05-0.049l-0.05-0.199
		l-0.05-0.051h-0.101h-0.05l-0.948-0.648h-0.149l-0.051,0.199v0.15l0.051,0.199l0.101,0.15l0.149,0.049l0.198,0.051l0.102,0.1
		l0.1,0.148l0.149,0.15l0.149,0.051l0.3,0.1l0.148,0.1l0.2,0.15l0.1,0.1h0.149h0.2h0.148l0.3-0.051h0.149l0.25,0.15l0.299,0.35
		l0.3,0.299h0.301l-0.25-0.1L489.661,520.868z M478.781,510.986l-0.3-0.399l-0.2-0.148l-0.199-0.051l-0.1,0.051l-0.2,0.1l-0.1,0.05
		l0.2,0.3l0.1,0.051h0.199l0.05,0.05l0.05,0.35l0.102,0.199l0.148,0.149l0.149,0.101l0.149-0.2v-0.199l-0.051-0.199L478.781,510.986
		z M465.106,500.456l-0.35,0.199l-0.249,0.1l-0.101,0.101l0.101,0.051l0.249-0.051l0.3-0.149l0.25-0.199l0.148-0.2h-0.199
		L465.106,500.456z"/>
        </g>
    </a>
    <a xlink:href="provinsi_dummy.php?provinsi=AnotherProvince" xlink:title="AnotherProvince" target="_parent">
        <g id="AnotherProvince">
            <!-- Define the path for another province here -->
            <path fill="#222222" d="M31.942,419.503 31.942,427.987 32.941,427.987 34.438,419.503"/>
        </g>
    </a>
    <!-- Add more provinces similarly -->
</svg>
